<svg id="Layer_1" data-name="Layer 1" xmlns="http://www.w3.org/2000/svg" viewBox="0 0 149.22 43.05"><defs><style>.cls-1{fill:#19a91d;}</style></defs><title>Artboard 1</title><path class="cls-1" d="M87.54,18.49,89,16.88a15.62,15.62,0,0,1,8.81-5.42A7.05,7.05,0,0,1,106.06,16c.34.84.68,1.69,1.1,2.75.7-.73,1.26-1.33,1.83-1.91,2.53-2.57,5.3-4.82,9-5.4,4.18-.66,9.61,1.22,9.37,7.6a86,86,0,0,1-1.48,10.16c-.28,1.77-.66,3.53-.95,5.3-.41,2.5.32,3.44,2.79,3.64l.78.08a4.22,4.22,0,0,1-.69,3.61,1.57,1.57,0,0,1-1.07.61,17.29,17.29,0,0,1-3.7-.2c-3-.63-4.58-3.08-4-6.32.6-3.58,1.31-7.13,1.94-10.71a27.1,27.1,0,0,0,.58-4.38c0-3.24-1.78-4.58-5.09-4.26-2.28.22-3.94,1.65-5.4,3.3a24.75,24.75,0,0,0-5.68,11.71c-.52,2.54-1,5.09-1.47,7.63a3.39,3.39,0,0,1-2.39,2.89,4,4,0,0,1-2.57-.27,2.06,2.06,0,0,1-.82-2.44c.9-4.66,1.85-9.3,2.72-14a39.76,39.76,0,0,0,.6-4.74c.21-3.24-2.09-4.46-5-4.1a7.56,7.56,0,0,0-4.29,2.22,24.63,24.63,0,0,0-7.15,13.67c-.43,2.23-.85,4.46-1.28,6.69A3.75,3.75,0,0,1,81,42.22a2.23,2.23,0,0,1-3.1-2.34c.2-2,.65-3.93,1-5.89.9-4.66,1.82-9.31,2.73-14a3.85,3.85,0,0,0,.07-.71c0-2.71.61-2.79-2.54-2.91a1.67,1.67,0,0,1-1.36-2.54,2.92,2.92,0,0,1,2.78-1.79,60.87,60.87,0,0,1,6.76.68c.28,0,.71.68.69,1C88,15.27,87.73,16.76,87.54,18.49Z"/><path class="cls-1" d="M31.73,38.18a1.21,1.21,0,0,1,.11.22c.28,3.41-1.6,4.87-4.93,3.8a5.39,5.39,0,0,1-3.52-3.65c-.29-.85-.55-1.71-.9-2.79l-1.55,1.75C18,40.85,14.43,43,9.84,43,4,43.07.78,39.57,1.51,33.79c.5-3.91,1.35-7.77,2-11.65.17-.94.39-1.87.55-2.82.28-1.6-.58-2.62-2.18-3A2.83,2.83,0,0,1,.19,15.18,1.64,1.64,0,0,1,.89,13,6,6,0,0,1,3.28,12a44.52,44.52,0,0,1,5,0,2.37,2.37,0,0,1,2.37,3C9.61,20.57,8.5,26.12,7.48,31.68a10.32,10.32,0,0,0,0,3.22c.3,2.17,2.7,3.42,5.36,2.92A11,11,0,0,0,18.88,34a24.7,24.7,0,0,0,6.18-13.5,12.21,12.21,0,0,0,.23-1.89,2.07,2.07,0,0,0-2.06-2.2,1.92,1.92,0,0,1-2-1.43,2,2,0,0,1,1.06-2.23,3.07,3.07,0,0,1,1.41-.59,55.32,55.32,0,0,1,6.33-.05c1.43.11,2.08,1.46,1.76,3.13-.39,2.07-.81,4.14-1.21,6.22-.84,4.34-1.69,8.68-2.51,13-.42,2.25.49,3.41,2.78,3.62Z"/><path class="cls-1" d="M71.3,24.74a19,19,0,0,1-16.25,18.1c-4.55.6-8.79,0-12.36-3.09s-4.64-7-4.3-11.53c.62-8.13,7.28-15,15.45-16.58a16.88,16.88,0,0,1,9.31.65C68.37,14.25,71.38,18.89,71.3,24.74Zm-5.72.79a24.47,24.47,0,0,0-.36-3c-1.17-4.81-5.66-7.3-10.81-6A13.57,13.57,0,0,0,44.15,28.68c-.45,6,4.23,10.22,10.15,9.34A13.87,13.87,0,0,0,65.58,25.53Z"/><path class="cls-1" d="M146.64,38.21a14.75,14.75,0,0,1-.16,1.92c-.42,1.91-1,2.38-3,2.31a15,15,0,0,1-2.39-.19c-3.22-.64-4.81-3.33-4.11-7,1-5,2-10.09,3-15.13a8.1,8.1,0,0,0,.16-1.31,2.12,2.12,0,0,0-2.17-2.45c-.92-.1-1.8-.48-1.84-1.38a2.91,2.91,0,0,1,.9-2.12,4.91,4.91,0,0,1,2.52-.87,41.75,41.75,0,0,1,4.19,0c2.34,0,3.29,1.12,2.85,3.42-.65,3.4-1.35,6.8-2,10.2-.58,3-1.17,5.94-1.73,8.92-.4,2.12.49,3.29,2.62,3.54Z"/><path class="cls-1" d="M146.79,0a2.32,2.32,0,0,1,2.43,2.4,3.84,3.84,0,0,1-3.68,3.45,2.27,2.27,0,0,1-2.43-2.49A3.61,3.61,0,0,1,146.79,0Z"/></svg>